<svg width="21" height="21" viewBox="0 0 21 21" fill="none" xmlns="http://www.w3.org/2000/svg">
<path fill-rule="evenodd" clip-rule="evenodd" d="M11.8415 0.753672C10.9637 0.51082 10.0364 0.51082 9.15853 0.753672C8.62863 0.900267 8.14924 1.15929 7.61967 1.52278C7.10145 1.87849 6.50058 2.35918 5.73723 2.96987L5.7172 2.98589L3.9672 4.3859L3.88854 4.44881C2.99889 5.16034 2.45132 5.59828 2.05146 6.14989C1.69772 6.63788 1.43454 7.18546 1.27446 7.76653C1.09352 8.42335 1.09361 9.12451 1.09376 10.2637L1.09377 10.3644V14.875C1.09377 17.6537 3.34633 19.9063 6.12502 19.9063C7.45395 19.9063 8.53127 18.829 8.53127 17.5V14C8.53127 12.9127 9.41271 12.0312 10.5 12.0312C11.5873 12.0312 12.4688 12.9127 12.4688 14V17.5001C12.4688 18.829 13.5461 19.9063 14.875 19.9063C17.6537 19.9063 19.9063 17.6537 19.9063 14.875V10.3644L19.9063 10.2637V10.2637C19.9064 9.1245 19.9065 8.42335 19.7256 7.76653C19.5655 7.18546 19.3023 6.63788 18.9486 6.14989C18.5487 5.59827 18.0011 5.16034 17.1115 4.44881L17.0328 4.3859L15.2828 2.9859L15.2628 2.96983L15.2627 2.96982C14.4994 2.35916 13.8986 1.87848 13.3804 1.52278C12.8508 1.15929 12.3714 0.900267 11.8415 0.753672Z" fill="white"/>
</svg>
