<svg width="21" height="21" viewBox="0 0 21 21" fill="none" xmlns="http://www.w3.org/2000/svg">
<path d="M17.0066 2.625H3.99316C3.12292 2.625 2.28832 2.9707 1.67297 3.58606C1.05762 4.20141 0.711914 5.03601 0.711914 5.90625V15.0937C0.711914 15.964 1.05762 16.7986 1.67297 17.4139C2.28832 18.0293 3.12292 18.375 3.99316 18.375H17.0066C17.8768 18.375 18.7114 18.0293 19.3268 17.4139C19.9422 16.7986 20.2879 15.964 20.2879 15.0937V5.90625C20.2879 5.03601 19.9422 4.20141 19.3268 3.58606C18.7114 2.9707 17.8768 2.625 17.0066 2.625ZM14.0141 11.3662L8.62957 14.2537C8.48641 14.331 8.32632 14.3716 8.16363 14.3719C7.90256 14.3719 7.65218 14.2682 7.46758 14.0836C7.28297 13.899 7.17926 13.6486 7.17926 13.3875V7.6125C7.17941 7.44233 7.22367 7.2751 7.30773 7.12714C7.39179 6.97917 7.51277 6.85553 7.65886 6.76826C7.80496 6.681 7.97119 6.63311 8.14131 6.62925C8.31144 6.62539 8.47967 6.6657 8.62957 6.74625L14.0141 9.63375C14.1704 9.7181 14.3009 9.84314 14.3919 9.99565C14.4829 10.1481 14.5309 10.3224 14.5309 10.5C14.5309 10.6776 14.4829 10.8519 14.3919 11.0044C14.3009 11.1569 14.1704 11.2819 14.0141 11.3662ZM8.49176 8.16047L12.8525 10.5L8.49176 12.8395V8.16047Z" fill="#A5A5A5"/>
</svg>
